<svg width="186" height="44" viewBox="0 0 186 44" fill="none" xmlns="http://www.w3.org/2000/svg">
<g id="Tags Tap">
<rect id="Rectangle" width="186" height="44" fill="white" fill-opacity="0.01"/>
<g id="Tags Icon">
<path id="Shape" fill-rule="evenodd" clip-rule="evenodd" d="M92.1036 10.6366L94.4676 13H100.5C102.157 13 103.5 14.3432 103.5 16V31C103.5 32.6569 102.157 34 100.5 34H83C81.3431 34 80 32.6569 80 31V16C80 14.3432 81.3431 13 83 13H89.03L91.3962 10.6364C91.5918 10.4416 91.9082 10.4417 92.1036 10.6366ZM91.7495 12.4037L89.9437 14.2076C89.7562 14.3948 89.502 14.5 89.2369 14.5H83C82.1716 14.5 81.5 15.1716 81.5 16V31C81.5 31.8285 82.1716 32.5 83 32.5H84C84 29.7386 86.2386 27.5 89 27.5H94.5C97.2614 27.5 99.5 29.7386 99.5 32.5H100.5C101.328 32.5 102 31.8285 102 31V16C102 15.1716 101.328 14.5 100.5 14.5H94.2605C93.9953 14.5001 93.741 14.3947 93.5534 14.2072L91.7495 12.4037ZM94.5 29C96.433 29 98 30.5671 98 32.5H85.5C85.5 30.5671 87.067 29 89 29H94.5ZM91.75 16.5C94.3734 16.5 96.5 18.6267 96.5 21.25C96.5 23.8734 94.3734 26 91.75 26C89.1266 26 87 23.8734 87 21.25C87 18.6267 89.1266 16.5 91.75 16.5ZM88.5 21.25C88.5 19.4551 89.9551 18 91.75 18C93.5449 18 95 19.4551 95 21.25C95 23.045 93.5449 24.5 91.75 24.5C89.9551 24.5 88.5 23.045 88.5 21.25Z" fill="black" fill-opacity="0.4"/>
</g>
</g>
</svg>
